<svg height="734" width="720" xmlns="http://www.w3.org/2000/svg">
<rect height="734" fill="#555" width="720"></rect>
<text fill="#7f7" font-family="Courier New" font-size="12" xml:space="preserve">
<tspan x="10" y="26">2017-10-08 12:29:19 +0800</tspan>
<tspan x="10" y="42">[npm publishAfterCommitAfterBuild]</tspan>
<tspan x="10" y="58">2017-04-27 17:37:41 +0000</tspan>
<tspan x="10" y="74">[ci skip] npm published</tspan>
<tspan x="10" y="90"></tspan>
<tspan x="10" y="106">2017-04-28 00:39:52 +0800</tspan>
<tspan x="10" y="122">[npm publishAfterCommitAfterBuild]</tspan>
<tspan x="10" y="138">2017-04-26 11:34:07 +0000</tspan>
<tspan x="10" y="154">[ci skip] npm published</tspan>
<tspan x="10" y="170"></tspan>
<tspan x="10" y="186">2017-04-26 11:30:16 +0000</tspan>
<tspan x="10" y="202">[npm publishAfterCommitAfterBuild]</tspan>
<tspan x="10" y="218"></tspan>
<tspan x="10" y="234">2017-04-26 11:14:32 +0000</tspan>
<tspan x="10" y="250">[ci skip] npm published</tspan>
<tspan x="10" y="266"></tspan>
<tspan x="10" y="282">2017-04-26 11:10:34 +0000</tspan>
<tspan x="10" y="298">[npm publishAfterCommitAfterBuild]</tspan>
<tspan x="10" y="314"></tspan>
<tspan x="10" y="330">2017-04-18 16:36:28 +0000</tspan>
<tspan x="10" y="346">[ci skip] npm published</tspan>
<tspan x="10" y="362"></tspan>
<tspan x="10" y="378">2017-04-18 17:03:51 +0800</tspan>
<tspan x="10" y="394">[npm publishAfterCommitAfterBuild]</tspan>
<tspan x="10" y="410">2017-04-08 06:49:57 +0000</tspan>
<tspan x="10" y="426">[ci skip] npm published</tspan>
<tspan x="10" y="442"></tspan>
<tspan x="10" y="458">2017-04-08 13:28:33 +0800</tspan>
<tspan x="10" y="474">[npm publishAfterCommitAfterBuild]</tspan>
<tspan x="10" y="490">2017-04-08 13:05:11 +0800</tspan>
<tspan x="10" y="506">[npm publishAfterCommitAfterBuild]</tspan>
<tspan x="10" y="522">2017-04-07 19:57:36 +0000</tspan>
<tspan x="10" y="538">[ci skip] npm published</tspan>
<tspan x="10" y="554"></tspan>
<tspan x="10" y="570">2017-04-07 18:13:04 +0800</tspan>
<tspan x="10" y="586">[npm publishAfterCommitAfterBuild]</tspan>
<tspan x="10" y="602">2017-04-01 17:17:29 +0000</tspan>
<tspan x="10" y="618">[npm publishAfterCommit]</tspan>
<tspan x="10" y="634"></tspan>
<tspan x="10" y="650">2017-04-01 17:11:05 +0000</tspan>
<tspan x="10" y="666">[npm publishAfterCommitAfterBuild]</tspan>
<tspan x="10" y="682"></tspan>
<tspan x="10" y="698">2014-03-26 02:31:50 +0700</tspan>
<tspan x="10" y="714">add blank README.md</tspan>
</text>
</svg>
