<svg height="478" width="720" xmlns="http://www.w3.org/2000/svg">
<rect height="478" fill="#555" width="720"></rect>
<text fill="#7f7" font-family="Courier New" font-size="12" xml:space="preserve">
<tspan x="10" y="26">2017-04-26 11:10:34 +0000</tspan>
<tspan x="10" y="42">[npm publishAfterCommitAfterBuild]</tspan>
<tspan x="10" y="58"></tspan>
<tspan x="10" y="74">2017-04-18 16:36:28 +0000</tspan>
<tspan x="10" y="90">[ci skip] npm published</tspan>
<tspan x="10" y="106"></tspan>
<tspan x="10" y="122">2017-04-18 17:03:51 +0800</tspan>
<tspan x="10" y="138">[npm publishAfterCommitAfterBuild]</tspan>
<tspan x="10" y="154">2017-04-08 06:49:57 +0000</tspan>
<tspan x="10" y="170">[ci skip] npm published</tspan>
<tspan x="10" y="186"></tspan>
<tspan x="10" y="202">2017-04-08 13:28:33 +0800</tspan>
<tspan x="10" y="218">[npm publishAfterCommitAfterBuild]</tspan>
<tspan x="10" y="234">2017-04-08 13:05:11 +0800</tspan>
<tspan x="10" y="250">[npm publishAfterCommitAfterBuild]</tspan>
<tspan x="10" y="266">2017-04-07 19:57:36 +0000</tspan>
<tspan x="10" y="282">[ci skip] npm published</tspan>
<tspan x="10" y="298"></tspan>
<tspan x="10" y="314">2017-04-07 18:13:04 +0800</tspan>
<tspan x="10" y="330">[npm publishAfterCommitAfterBuild]</tspan>
<tspan x="10" y="346">2017-04-01 17:17:29 +0000</tspan>
<tspan x="10" y="362">[npm publishAfterCommit]</tspan>
<tspan x="10" y="378"></tspan>
<tspan x="10" y="394">2017-04-01 17:11:05 +0000</tspan>
<tspan x="10" y="410">[npm publishAfterCommitAfterBuild]</tspan>
<tspan x="10" y="426"></tspan>
<tspan x="10" y="442">2014-03-26 02:31:50 +0700</tspan>
<tspan x="10" y="458">add blank README.md</tspan>
</text>
</svg>
