<svg height="990" width="720" xmlns="http://www.w3.org/2000/svg">
<rect height="990" fill="#555" width="720"></rect>
<text fill="#7f7" font-family="Courier New" font-size="12" xml:space="preserve">
<tspan x="10" y="26"></tspan>
<tspan x="10" y="42">[MODE_BUILD=buildApp] - 2017-10-08T04:50:11.046Z - npm-testing /home/travis/build/npmdoc/node-np\</tspan>
<tspan x="10" y="58">mdoc-sandbox3</tspan>
<tspan x="10" y="74"></tspan>
<tspan x="10" y="90"></tspan>
<tspan x="10" y="106">buildApp - merged test-report from file /home/travis/build/npmdoc/node-npmdoc-sandbox3/tmp/build\</tspan>
<tspan x="10" y="122">/test-report.json</tspan>
<tspan x="10" y="138">&gt; server listening on http-port 32827</tspan>
<tspan x="10" y="154">apidocCreate - readExample /home/travis/build/npmdoc/node-npmdoc-sandbox3/node_modules/sandbox3/\</tspan>
<tspan x="10" y="170">package.json</tspan>
<tspan x="10" y="186">apidocCreate - readExample /home/travis/build/npmdoc/node-npmdoc-sandbox3/node_modules/sandbox3/\</tspan>
<tspan x="10" y="202">.gitignore</tspan>
<tspan x="10" y="218">apidocCreate - readExample /home/travis/build/npmdoc/node-npmdoc-sandbox3/node_modules/sandbox3/\</tspan>
<tspan x="10" y="234">package.json</tspan>
<tspan x="10" y="250">apidocCreate - readExample /home/travis/build/npmdoc/node-npmdoc-sandbox3/node_modules/sandbox3/\</tspan>
<tspan x="10" y="266">README.md</tspan>
<tspan x="10" y="282">apidocCreate - requiring /home/travis/build/npmdoc/node-npmdoc-sandbox3/node_modules/sandbox3 ..\</tspan>
<tspan x="10" y="298">.</tspan>
<tspan x="10" y="314">apidocCreate - ... required /home/travis/build/npmdoc/node-npmdoc-sandbox3/node_modules/sandbox3</tspan>
<tspan x="10" y="330">created apidoc file /home/travis/build/npmdoc/node-npmdoc-sandbox3/tmp/build/apidoc.html</tspan>
<tspan x="10" y="346"></tspan>
<tspan x="10" y="362">apidocCreate - readExample /home/travis/build/npmdoc/node-npmdoc-sandbox3/node_modules/sandbox3/\</tspan>
<tspan x="10" y="378">package.json</tspan>
<tspan x="10" y="394">apidocCreate - readExample /home/travis/build/npmdoc/node-npmdoc-sandbox3/node_modules/sandbox3/\</tspan>
<tspan x="10" y="410">.gitignore</tspan>
<tspan x="10" y="426">apidocCreate - readExample /home/travis/build/npmdoc/node-npmdoc-sandbox3/node_modules/sandbox3/\</tspan>
<tspan x="10" y="442">package.json</tspan>
<tspan x="10" y="458">apidocCreate - readExample /home/travis/build/npmdoc/node-npmdoc-sandbox3/node_modules/sandbox3/\</tspan>
<tspan x="10" y="474">README.md</tspan>
<tspan x="10" y="490">apidocCreate - requiring /home/travis/build/npmdoc/node-npmdoc-sandbox3/node_modules/sandbox3 ..\</tspan>
<tspan x="10" y="506">.</tspan>
<tspan x="10" y="522">apidocCreate - ... required /home/travis/build/npmdoc/node-npmdoc-sandbox3/node_modules/sandbox3</tspan>
<tspan x="10" y="538">created customOrg file /home/travis/build/npmdoc/node-npmdoc-sandbox3/README.md</tspan>
<tspan x="10" y="554"></tspan>
<tspan x="10" y="570">&gt; server listening on http-port 43634</tspan>
<tspan x="10" y="586">[node test-case 1 of 1 passed] - testCase_buildApp_default</tspan>
<tspan x="10" y="602"></tspan>
<tspan x="10" y="618">buildApp - merged test-report from file /home/travis/build/npmdoc/node-npmdoc-sandbox3/tmp/build\</tspan>
<tspan x="10" y="634">/test-report.json</tspan>
<tspan x="10" y="650"></tspan>
<tspan x="10" y="666">-------------------------------------------------------</tspan>
<tspan x="10" y="682">| test-report - buildApidoc - node - linux v6.11.4 - 2017-10-08T04:49:48.304Z</tspan>
<tspan x="10" y="698">|   28961 ms            0 failed        1 passed      |</tspan>
<tspan x="10" y="714">-------------------------------------------------------</tspan>
<tspan x="10" y="730">| test-report - buildApp - node - linux v6.11.4 - 2017-10-08T04:49:18.239Z</tspan>
<tspan x="10" y="746">|   26617 ms            0 failed        8 passed      |</tspan>
<tspan x="10" y="762">-------------------------------------------------------</tspan>
<tspan x="10" y="778">| test-report - npmTest - browser - / - Mozilla/5.0 (X11; Linux x86_64) AppleWebKit/537.36 (KHTM\</tspan>
<tspan x="10" y="794">L, like Gecko) Chrome/56.0.2924.87 Electron/1.6.14 Safari/537.36 - 2017-10-08T04:49:30.932Z</tspan>
<tspan x="10" y="810">|      29 ms            0 failed        8 passed      |</tspan>
<tspan x="10" y="826">-------------------------------------------------------</tspan>
<tspan x="10" y="842"></tspan>
<tspan x="10" y="858">created test-report file /home/travis/build/npmdoc/node-npmdoc-sandbox3/tmp/build/test-report.ht\</tspan>
<tspan x="10" y="874">ml</tspan>
<tspan x="10" y="890"></tspan>
<tspan x="10" y="906"></tspan>
<tspan x="10" y="922">buildApp - 0 failed tests</tspan>
<tspan x="10" y="938"></tspan>
<tspan x="10" y="954"></tspan>
<tspan x="10" y="970">[MODE_BUILD=buildApp] - 2017-10-08T04:50:19.340Z - EXIT_CODE - 0</tspan>
</text>
</svg>
